<svg width="514" height="512" viewBox="0 0 514 512" fill="none" xmlns="http://www.w3.org/2000/svg">
<rect width="512" height="512" transform="translate(0.862305)" fill="white"/>
<path d="M119.288 385.682C119.244 385.638 119.2 385.57 119.157 385.536C118.258 384.514 117.348 383.48 116.472 382.447C114.872 380.593 113.293 378.728 111.759 376.829C59.507 439.6 16.274 491.72 3.70412 507.281C1.89589 509.528 0.734247 510.989 0.252056 511.64C0.109588 511.831 0.0219165 511.955 0 512C0 512 5.46851 505.09 92.3619 424.186C104.713 412.681 116.526 403.12 127.989 394.907C124.998 391.907 122.115 388.828 119.288 385.682Z" fill="black"/>
<path d="M161.173 340.797C217.064 281.779 272.242 222.109 324.976 160.068L324.538 159.63C255.256 229.299 185.239 306.148 116.45 382.446C117.326 383.48 118.236 384.514 119.135 385.536C135.157 368.335 149.743 352.729 161.151 340.775" fill="black"/>
<path d="M288.487 0C164.366 0 63.7522 103.15 63.7522 230.4C63.7522 286.015 82.9851 337.023 114.974 376.829C203.566 270.375 318.021 133.283 352.443 92.0613C352.717 91.7355 369.824 71.3885 382.822 65.6361C405.857 55.4233 424.981 61.3667 437.025 64.1081C438.12 64.3665 439.172 64.58 440.159 64.771C440.893 64.9058 441.572 65.0182 442.241 65.0968C442.362 65.1193 442.493 65.1418 442.603 65.1418C442.701 65.1418 442.789 65.1642 442.888 65.1642C444.367 65.3103 445.649 65.2878 446.712 65.0294C442.197 75.377 442.197 74.7366 425.068 93.3983C368.717 154.788 419.282 228.547 341.452 288.172C263.643 347.797 205.462 341.64 131.204 394.884C171.742 435.634 227.238 460.779 288.487 460.779C412.608 460.779 513.222 357.628 513.222 230.378V0H288.487Z" fill="black"/>
</svg>
